<?xml version="1.0" encoding="UTF-8"?>
<svg height="16px" viewBox="0 0 16 16" width="16px" xmlns="http://www.w3.org/2000/svg" xmlns:xlink="http://www.w3.org/1999/xlink">
    <filter id="a" height="100%" width="100%" x="0%" y="0%">
        <feColorMatrix in="SourceGraphic" type="matrix" values="0 0 0 0 1 0 0 0 0 1 0 0 0 0 1 0 0 0 1 0"/>
    </filter>
    <mask id="b">
        <g filter="url(#a)">
            <rect fill-opacity="0.05" height="16" width="16"/>
        </g>
    </mask>
    <radialGradient id="c" cx="63.999996" cy="194.190475" gradientTransform="matrix(-4.136364 -0.00000125 -0.00000027 1.390909 327.118784 -154.884254)" gradientUnits="userSpaceOnUse" r="44">
        <stop offset="0" stop-color="#ffffff"/>
        <stop offset="1" stop-color="#ffffff" stop-opacity="0.094118"/>
    </radialGradient>
    <clipPath id="d">
        <rect height="152" width="192"/>
    </clipPath>
    <g clip-path="url(#d)" mask="url(#b)" transform="matrix(1 0 0 1 -168 -16)">
        <path d="m 23.890625 119.75 h 84 v -68 h -84 z m 0 0" fill="url(#c)"/>
    </g>
    <path d="m 1.296875 1.96875 c -0.625 0 -1.125 0.585938 -1.125 1.308594 v 2.351562 c 0.1875 -0.449218 0.566406 -0.835937 1.003906 -0.976562 l 8.410157 -2.683594 z m 14.816406 8.699219 c -0.179687 0.476562 -0.574219 0.890625 -1.035156 1.039062 l -8.179687 2.609375 h 8.089843 c 0.625 0 1.125 -0.582031 1.125 -1.308594 z m 0 0"/>
    <path d="m 6.027344 4.277344 c -0.488282 0 -0.878906 0.445312 -0.878906 1 v 1.800781 c 0.058593 0.640625 0.28125 1.136719 0.667968 1.492187 c 0.464844 0.414063 0.929688 0.613282 1.398438 0.597657 v -1.621094 c -0.371094 0 -0.605469 -0.125 -0.703125 -0.382813 c -0.042969 -0.109374 -0.066407 -0.253906 -0.066407 -0.4375 l -0.011718 -0.820312 h 5.28125 l 0.003906 -0.632812 c 0 -0.550782 -0.394531 -0.996094 -0.878906 -0.996094 z m 2.382812 3.261718 c -0.449218 0.011719 -0.671875 0.285157 -0.671875 0.832032 s 0.234375 0.8125 0.699219 0.796875 c 0.429688 0 0.644531 -0.269531 0.644531 -0.820313 c 0 -0.546875 -0.222656 -0.816406 -0.671875 -0.808594 z m 1.226563 0.003907 v 1.621093 c 0.371093 0 0.605469 0.128907 0.707031 0.386719 c 0.042969 0.109375 0.0625 0.253907 0.0625 0.433594 c 0 0.21875 -0.027344 0.375 -0.082031 0.472656 c -0.058594 0.09375 -0.167969 0.175781 -0.332031 0.238281 c -0.191407 0.074219 -0.503907 0.097657 -0.933594 0.074219 h -3.910156 v 0.628907 c 0 0.550781 0.390624 1 0.878906 1 h 3.503906 c 0.898438 -0.078126 1.527344 -0.429688 1.882812 -1.058594 c 0.179688 -0.320313 0.28125 -0.710938 0.304688 -1.15625 v -0.328125 c -0.023438 -0.746094 -0.25 -1.316407 -0.6875 -1.707031 c -0.457031 -0.417969 -0.921875 -0.617188 -1.394531 -0.605469 z m 0 0"/>
</svg>
