<?xml version="1.0" encoding="UTF-8"?>
<svg height="128px" viewBox="0 0 128 128" width="128px" xmlns="http://www.w3.org/2000/svg" xmlns:xlink="http://www.w3.org/1999/xlink">
    <linearGradient id="a" gradientUnits="userSpaceOnUse" x1="7.891489" x2="119.891489" y1="103.75029375" y2="103.75029375">
        <stop offset="0" stop-color="#d5d3cf"/>
        <stop offset="0.0357143" stop-color="#e4e1de"/>
        <stop offset="0.0714286" stop-color="#d5d3cf"/>
        <stop offset="0.928571" stop-color="#d5d3cf"/>
        <stop offset="0.964286" stop-color="#e4e1de"/>
        <stop offset="1" stop-color="#d5d3cf"/>
    </linearGradient>
    <filter id="b" height="100%" width="100%" x="0%" y="0%">
        <feColorMatrix in="SourceGraphic" type="matrix" values="0 0 0 0 1 0 0 0 0 1 0 0 0 0 1 0 0 0 1 0"/>
    </filter>
    <mask id="c">
        <g filter="url(#b)">
            <rect fill-opacity="0.05" height="128" width="128"/>
        </g>
    </mask>
    <radialGradient id="d" cx="63.999996" cy="194.190475" gradientTransform="matrix(-4.136364 -0.00000125 -0.00000027 1.390909 327.118784 -154.884254)" gradientUnits="userSpaceOnUse" r="44">
        <stop offset="0" stop-color="#ffffff"/>
        <stop offset="1" stop-color="#ffffff" stop-opacity="0.094118"/>
    </radialGradient>
    <clipPath id="e">
        <rect height="152" width="192"/>
    </clipPath>
    <path d="m 115.21875 83.570312 c 0 2.800782 -2.136719 5.066407 -4.769531 5.066407 c -2.632813 0 -4.769531 -2.265625 -4.769531 -5.066407 c 0 -2.796874 2.136718 -5.0625 4.769531 -5.0625 c 2.632812 0 4.769531 2.265626 4.769531 5.0625 z m 0 0" fill="#4d4d4d"/>
    <path d="m 110.449219 78.664062 c 2.457031 0 4.453125 1.992188 4.453125 4.453126 v 0.15625 c 0 2.460937 -1.996094 4.453124 -4.453125 4.453124 s -4.449219 -1.992187 -4.449219 -4.453124 v -0.15625 c 0 -2.460938 1.992188 -4.453126 4.449219 -4.453126 z m 0 0" fill="#d5d3cf"/>
    <path d="m 115.21875 83.117188 c 0 2.632812 -2.136719 4.765624 -4.769531 4.765624 c -2.632813 0 -4.769531 -2.132812 -4.769531 -4.765624 c 0 -2.636719 2.136718 -4.769532 4.769531 -4.769532 c 2.632812 0 4.769531 2.132813 4.769531 4.769532 z m 0 0" fill="#ffffff"/>
    <path d="m 114.742188 83.117188 c 0 2.367187 -1.921876 4.289062 -4.292969 4.289062 c -2.371094 0 -4.292969 -1.921875 -4.292969 -4.289062 c 0 -2.371094 1.921875 -4.292969 4.292969 -4.292969 c 2.371093 0 4.292969 1.921875 4.292969 4.292969 z m 0 0" fill="#424048"/>
    <path d="m 110.886719 82.921875 c 0.105469 0.238281 -0.003907 0.523437 -0.242188 0.628906 c -0.242187 0.109375 -0.523437 0 -0.628906 -0.242187 c -0.109375 -0.238282 0 -0.519532 0.238281 -0.628906 c 0.242188 -0.105469 0.523438 0 0.632813 0.242187 z m 0 0" fill="#f9f9f9"/>
    <path d="m 110.609375 83.117188 c 0 0.085937 -0.070313 0.15625 -0.15625 0.15625 c -0.089844 0 -0.160156 -0.070313 -0.160156 -0.15625 c 0 -0.089844 0.070312 -0.160157 0.160156 -0.160157 c 0.085937 0 0.15625 0.070313 0.15625 0.160157 z m 0 0" fill="#131c1a"/>
    <path d="m 795.538956 -544.127868 l 51.015618 -33.962945" fill="none" stroke="#ffffff" stroke-linecap="round" stroke-width="3.09018" transform="matrix(0.0794793 0 0 0.0794754 46.97031 126.565094)"/>
    <path d="m 110.609375 83.117188 c 0 0.085937 -0.070313 0.15625 -0.15625 0.15625 c -0.089844 0 -0.160156 -0.070313 -0.160156 -0.15625 c 0 -0.089844 0.070312 -0.160157 0.160156 -0.160157 c 0.085937 0 0.15625 0.070313 0.15625 0.160157 z m 0 0" fill="#131c1a"/>
    <path d="m 15.890625 27.75 h 96 c 4.417969 0 8 3.582031 8 8 v 70 c 0 4.417969 -3.582031 8 -8 8 h -96 c -4.417969 0 -8 -3.582031 -8 -8 v -70 c 0 -4.417969 3.582031 -8 8 -8 z m 0 0" fill="#f6f5f4"/>
    <path d="m 15.890625 31.75 h 84 c 2.210937 0 4 1.792969 4 4 v 68 c 0 2.210938 -1.789063 4 -4 4 h -84 c -2.207031 0 -4 -1.789062 -4 -4 v -68 c 0 -2.207031 1.792969 -4 4 -4 z m 0 0" fill="#241f31"/>
    <path d="m 7.890625 103.75 v 4 c 0 4.433594 3.570313 8 8 8 h 96 c 4.433594 0 8 -3.566406 8 -8 v -4 c 0 4.433594 -3.566406 8 -8 8 h -96 c -4.429687 0 -8 -3.566406 -8 -8 z m 0 0" fill="url(#a)"/>
    <g clip-path="url(#e)" mask="url(#c)" transform="matrix(1 0 0 1 -8 -16)">
        <path d="m 23.890625 119.75 h 84 v -68 h -84 z m 0 0" fill="url(#d)"/>
    </g>
    <path d="m 83.996094 99.027344 h -51.15625 c -2.570313 0 -4.652344 -2.101563 -4.652344 -4.695313 v -46.964843 c 0 -2.59375 2.082031 -4.699219 4.652344 -4.699219 h 51.15625 c 2.570312 0 4.652344 2.105469 4.652344 4.699219 v 46.964843 c 0 2.59375 -2.082032 4.695313 -4.652344 4.695313 z m 0 0" fill="#d5d3cf"/>
    <path d="m 83.996094 95.503906 h -51.15625 c -2.570313 0 -4.652344 -2.101562 -4.652344 -4.695312 v -46.964844 c 0 -2.59375 2.082031 -4.695312 4.652344 -4.695312 h 51.15625 c 2.570312 0 4.652344 2.101562 4.652344 4.695312 v 46.964844 c 0 2.59375 -2.082032 4.695312 -4.652344 4.695312 z m 0 0" fill="#f6f5f4"/>
    <path d="m 46.414062 101.8125 c 0.050782 0 0.09375 0.058594 0.09375 0.125 c 0 0.070312 -0.042968 0.125 -0.09375 0.125 c -0.050781 0 -0.089843 -0.054688 -0.089843 -0.125 c 0 -0.066406 0.039062 -0.125 0.089843 -0.125 z m 0 0"/>
    <path d="m 39.265625 88.722656 c 0 2.398438 -2.042969 4.34375 -4.558594 4.34375 c -2.519531 0 -4.5625 -1.945312 -4.5625 -4.34375 c 0 -2.398437 2.042969 -4.339844 4.5625 -4.339844 c 2.515625 0 4.558594 1.941407 4.558594 4.339844 z m 0 0"/>
    <path d="m 39.285156 88.15625 c 0 2.398438 -2.042968 4.339844 -4.558594 4.339844 c -2.519531 0 -4.5625 -1.941406 -4.5625 -4.339844 s 2.042969 -4.339844 4.5625 -4.339844 c 2.515626 0 4.558594 1.941406 4.558594 4.339844 z m 0 0" fill="#333333"/>
    <path d="m 39.722656 45.921875 c 0 2.398437 -2.042968 4.339844 -4.558594 4.339844 c -2.519531 0 -4.5625 -1.941407 -4.5625 -4.339844 s 2.042969 -4.339844 4.5625 -4.339844 c 2.515626 0 4.558594 1.941407 4.558594 4.339844 z m 0 0"/>
    <path d="m 86.375 45.820312 c 0 2.394532 -2.042969 4.339844 -4.5625 4.339844 c -2.515625 0 -4.558594 -1.945312 -4.558594 -4.339844 c 0 -2.398437 2.042969 -4.34375 4.558594 -4.34375 c 2.519531 0 4.5625 1.945313 4.5625 4.34375 z m 0 0"/>
    <path d="m 86.503906 88.960938 c 0 2.398437 -2.042968 4.34375 -4.558594 4.34375 c -2.519531 0 -4.5625 -1.945313 -4.5625 -4.34375 c 0 -2.398438 2.042969 -4.339844 4.5625 -4.339844 c 2.515626 0 4.558594 1.941406 4.558594 4.339844 z m 0 0"/>
    <path d="m 86.523438 88.546875 c 0 2.394531 -2.039063 4.339844 -4.558594 4.339844 c -2.519532 0 -4.5625 -1.945313 -4.5625 -4.339844 c 0 -2.398437 2.042968 -4.34375 4.5625 -4.34375 c 2.519531 0 4.558594 1.945313 4.558594 4.34375 z m 0 0" fill="#333333"/>
    <path d="m 62.09375 67.800781 c 0 2.394531 -2.039062 4.339844 -4.558594 4.339844 c -2.519531 0 -4.5625 -1.945313 -4.5625 -4.339844 c 0 -2.398437 2.042969 -4.34375 4.5625 -4.34375 c 2.519532 0 4.558594 1.945313 4.558594 4.34375 z m 0 0"/>
    <path d="m 44.90625 47.929688 c -2.578125 0 -4.652344 2.136718 -4.652344 4.785156 v 8.621094 c 0.308594 3.054687 1.488282 5.4375 3.550782 7.132812 c 2.445312 1.980469 4.90625 2.9375 7.394531 2.871094 v -7.757813 c -1.960938 0 -3.203125 -0.613281 -3.730469 -1.84375 c -0.226562 -0.523437 -0.339844 -1.21875 -0.339844 -2.082031 l -0.0625 -3.925781 h 27.953125 l 0.019531 -3.027344 c -0.007812 -2.644531 -2.078124 -4.773437 -4.652343 -4.773437 z m 12.621094 15.605468 c -2.371094 0.050782 -3.558594 1.375 -3.558594 3.976563 c 0 2.617187 1.234375 3.894531 3.707031 3.828125 c 2.273438 0 3.410157 -1.304688 3.410157 -3.925782 c 0 -2.617187 -1.1875 -3.910156 -3.558594 -3.878906 z m 6.5 0.027344 v 7.757812 c 1.957031 0 3.203125 0.613282 3.726562 1.84375 c 0.226563 0.523438 0.34375 1.21875 0.34375 2.082032 c 0 1.039062 -0.152344 1.785156 -0.449218 2.25 c -0.296876 0.464844 -0.882813 0.84375 -1.746094 1.148437 c -1.023438 0.351563 -2.671875 0.472657 -4.945313 0.359375 h -20.703125 v 2.996094 c 0 2.648438 2.074219 4.785156 4.652344 4.785156 h 18.554688 c 4.753906 -0.363281 8.074218 -2.042968 9.960937 -5.050781 c 0.957031 -1.550781 1.496094 -3.402344 1.617187 -5.550781 v -1.570313 c -0.132812 -3.5625 -1.335937 -6.289062 -3.640624 -8.15625 c -2.429688 -1.996093 -4.886719 -2.960937 -7.371094 -2.894531 z m 0 0"/>
    <path d="m 62.085938 67.191406 c 0 2.398438 -2.039063 4.339844 -4.558594 4.339844 c -2.519532 0 -4.5625 -1.941406 -4.5625 -4.339844 c 0 -2.398437 2.042968 -4.339844 4.5625 -4.339844 c 2.519531 0 4.558594 1.941407 4.558594 4.339844 z m 0 0" fill="#333333"/>
    <path d="m 39.734375 45.429688 c 0 2.398437 -2.042969 4.34375 -4.558594 4.34375 c -2.519531 0 -4.5625 -1.945313 -4.5625 -4.34375 c 0 -2.398438 2.042969 -4.339844 4.5625 -4.339844 c 2.515625 0 4.558594 1.941406 4.558594 4.339844 z m 0 0" fill="#333333"/>
    <path d="m 86.394531 45.367188 c 0 2.394531 -2.042969 4.339843 -4.558593 4.339843 c -2.519532 0 -4.5625 -1.945312 -4.5625 -4.339843 c 0 -2.398438 2.042968 -4.34375 4.5625 -4.34375 c 2.515624 0 4.558593 1.945312 4.558593 4.34375 z m 0 0" fill="#333333"/>
    <path d="m 110.023438 31.789062 h 2.488281 c 0.988281 0 1.785156 1.074219 1.785156 2.402344 v 41.078125 c 0 1.328125 -0.796875 2.402344 -1.785156 2.402344 h -2.488281 c -0.988282 0 -1.789063 -1.074219 -1.789063 -2.402344 v -41.078125 c 0 -1.328125 0.800781 -2.402344 1.789063 -2.402344 z m 0 0" fill="#282335"/>
    <path d="m 108.523438 63.953125 v 11.035156 c 0 1.335938 0.796874 2.40625 1.789062 2.40625 h 1.257812 v -13.441406 z m 0 0" fill="#cccccc"/>
    <path d="m 110.640625 60.222656 v 17.1875 h 1.527344 c 0.988281 0 1.785156 -1.070312 1.785156 -2.402344 v -14.785156 z m 0 0" fill="#ececec"/>
    <path d="m 108.453125 62.289062 h 2.042969 v 0.976563 h -2.042969 z m 0 0" fill="#cccccc"/>
    <path d="m 111.960938 58.5625 h 2.042968 v 0.976562 h -2.042968 z m 0 0" fill="#ececec"/>
    <g fill="#4d4d4d">
        <path d="m 110.71875 31.8125 h 1.074219 c 0.125 0 0.230469 0.074219 0.230469 0.160156 v 45.316406 c 0 0.085938 -0.105469 0.160157 -0.230469 0.160157 h -1.074219 c -0.128906 0 -0.234375 -0.074219 -0.234375 -0.160157 v -45.316406 c 0 -0.085937 0.105469 -0.160156 0.234375 -0.160156 z m 0 0"/>
        <path d="m 108.4375 51.09375 v -0.984375 c 0 -0.152344 0.113281 -0.277344 0.25 -0.277344 h 5.179688 c 0.136718 0 0.25 0.125 0.25 0.277344 v 0.984375 c 0 0.152344 -0.113282 0.277344 -0.25 0.277344 h -5.179688 c -0.136719 0 -0.25 -0.125 -0.25 -0.277344 z m 0 0"/>
        <path d="m 116.242188 86.449219 c 0 2.917969 -2.136719 5.285156 -4.769532 5.285156 c -2.632812 0 -4.769531 -2.367187 -4.769531 -5.285156 s 2.136719 -5.28125 4.769531 -5.28125 c 2.632813 0 4.769532 2.363281 4.769532 5.28125 z m 0 0"/>
    </g>
    <path d="m 111.472656 81.328125 c 2.457032 0 4.453125 1.992187 4.453125 4.449219 v 0.160156 c 0 2.457031 -1.996093 4.449219 -4.453125 4.449219 c -2.457031 0 -4.449218 -1.992188 -4.449218 -4.449219 v -0.160156 c 0 -2.457032 1.992187 -4.449219 4.449218 -4.449219 z m 0 0" fill="#d5d3cf"/>
    <path d="m 116.242188 85.777344 c 0 2.632812 -2.136719 4.769531 -4.769532 4.769531 c -2.632812 0 -4.769531 -2.136719 -4.769531 -4.769531 c 0 -2.632813 2.136719 -4.769532 4.769531 -4.769532 c 2.632813 0 4.769532 2.136719 4.769532 4.769532 z m 0 0" fill="#ffffff"/>
    <path d="m 115.765625 85.777344 c 0 2.371094 -1.921875 4.292968 -4.292969 4.292968 s -4.292968 -1.921874 -4.292968 -4.292968 s 1.921874 -4.292969 4.292968 -4.292969 s 4.292969 1.921875 4.292969 4.292969 z m 0 0" fill="#424048"/>
    <path d="m 111.910156 85.582031 c 0.105469 0.242188 -0.003906 0.523438 -0.242187 0.628907 c -0.242188 0.109374 -0.523438 0 -0.628907 -0.238282 c -0.109374 -0.242187 0 -0.523437 0.238282 -0.632812 c 0.242187 -0.105469 0.523437 0.003906 0.632812 0.242187 z m 0 0" fill="#f9f9f9"/>
    <path d="m 111.636719 85.777344 c 0 0.085937 -0.074219 0.160156 -0.160157 0.160156 c -0.089843 0 -0.160156 -0.074219 -0.160156 -0.160156 c 0 -0.089844 0.070313 -0.160156 0.160156 -0.160156 c 0.085938 0 0.160157 0.070312 0.160157 0.160156 z m 0 0" fill="#131c1a"/>
    <path d="m 111.222656 85.980469 l 4.058594 -2.699219" fill="none" stroke="#ffffff" stroke-linecap="round" stroke-width="0.245599"/>
    <path d="m 111.632812 85.777344 c 0 0.085937 -0.070312 0.160156 -0.15625 0.160156 c -0.089843 0 -0.160156 -0.074219 -0.160156 -0.160156 c 0 -0.089844 0.070313 -0.160156 0.160156 -0.160156 c 0.085938 0 0.15625 0.070312 0.15625 0.160156 z m 0 0" fill="#131c1a"/>
    <path d="m 116.296875 98.921875 c 0 2.894531 -2.136719 5.242187 -4.769531 5.242187 c -2.632813 0 -4.769532 -2.347656 -4.769532 -5.242187 s 2.136719 -5.242187 4.769532 -5.242187 c 2.632812 0 4.769531 2.347656 4.769531 5.242187 z m 0 0" fill="#4d4d4d"/>
    <path d="m 111.527344 93.839844 c 2.457031 0 4.449218 1.992187 4.449218 4.449218 v 0.160157 c 0 2.457031 -1.992187 4.449219 -4.449218 4.449219 c -2.457032 0 -4.449219 -1.992188 -4.449219 -4.449219 v -0.160157 c 0 -2.457031 1.992187 -4.449218 4.449219 -4.449218 z m 0 0" fill="#d5d3cf"/>
    <path d="m 116.296875 98.289062 c 0 2.632813 -2.136719 4.769532 -4.769531 4.769532 c -2.632813 0 -4.769532 -2.136719 -4.769532 -4.769532 c 0 -2.632812 2.136719 -4.769531 4.769532 -4.769531 c 2.632812 0 4.769531 2.136719 4.769531 4.769531 z m 0 0" fill="#ffffff"/>
    <path d="m 115.820312 98.289062 c 0 2.371094 -1.921874 4.292969 -4.292968 4.292969 s -4.292969 -1.921875 -4.292969 -4.292969 c 0 -2.371093 1.921875 -4.292968 4.292969 -4.292968 s 4.292968 1.921875 4.292968 4.292968 z m 0 0" fill="#424048"/>
    <path d="m 111.960938 98.09375 c 0.109374 0.242188 0 0.523438 -0.238282 0.628906 c -0.242187 0.109375 -0.523437 0 -0.632812 -0.238281 c -0.105469 -0.242187 0.003906 -0.523437 0.242187 -0.628906 c 0.242188 -0.109375 0.523438 0 0.628907 0.238281 z m 0 0" fill="#f9f9f9"/>
    <path d="m 111.6875 98.289062 c 0 0.085938 -0.070312 0.160157 -0.15625 0.160157 c -0.089844 0 -0.160156 -0.074219 -0.160156 -0.160157 c 0 -0.089843 0.070312 -0.160156 0.160156 -0.160156 c 0.085938 0 0.15625 0.070313 0.15625 0.160156 z m 0 0" fill="#131c1a"/>
    <path d="m 111.277344 98.492188 l 4.054687 -2.699219" fill="none" stroke="#ffffff" stroke-linecap="round" stroke-width="0.245599"/>
    <path d="m 111.6875 98.289062 c 0 0.085938 -0.070312 0.160157 -0.15625 0.160157 c -0.089844 0 -0.160156 -0.074219 -0.160156 -0.160157 c 0 -0.085937 0.070312 -0.160156 0.160156 -0.160156 c 0.085938 0 0.15625 0.074219 0.15625 0.160156 z m 0 0" fill="#131c1a"/>
</svg>
